Coordinates
version=1
nRows=39
nColumns=38
inDegrees=no

Units are S.I. units (second, meters, Newtons, ...)
If the header above contains a line with 'inDegrees', this indicates whether rotational values are in degrees (yes) or radians (no).

endheader
time	pelvis_tilt	pelvis_list	pelvis_rotation	pelvis_tx	pelvis_ty	pelvis_tz	hip_flexion_r	hip_adduction_r	hip_rotation_r	knee_angle_r	ankle_angle_r	subtalar_angle_r	mtp_angle_r	hip_flexion_l	hip_adduction_l	hip_rotation_l	knee_angle_l	ankle_angle_l	subtalar_angle_l	mtp_angle_l	lumbar_extension	lumbar_bending	lumbar_rotation	arm_flex_r	arm_add_r	arm_rot_r	elbow_flex_r	pro_sup_r	wrist_flex_r	wrist_dev_r	arm_flex_l	arm_add_l	arm_rot_l	elbow_flex_l	pro_sup_l	wrist_flex_l	wrist_dev_l
5.325	-0.1536	0.0229383	-3.0428	-0.341278	0.930038	-0.0023746	0.419235	0.0157639	-0.140569	0.488003	-0.0104003	0	0	-0.371837	-0.0415403	-0.0119365	0.600782	0.0916676	0	0	-0.338478	0.0872401	-0.155083	-0.00860476	-0.344294	1.57058	0.340046	-0.000180259	0	0	0.531578	-0.248457	1.57347	0.46809	0.0724569	0	0
5.335	-0.152989	0.0272742	-3.03915	-0.343233	0.930137	-0.00340387	0.416549	0.020075	-0.145682	0.512893	-0.0060157	0	0	-0.347426	-0.0572778	-0.0225396	0.658073	0.0394683	0	0	-0.335271	0.0929077	-0.153642	0.00124738	-0.342798	1.57053	0.342709	-0.000450242	0	0	0.500638	-0.24842	1.5731	0.448399	0.0421884	0	0
5.34499	-0.152939	0.0319082	-3.03674	-0.344898	0.930491	-0.00452847	0.411574	0.0254942	-0.149835	0.534399	0.00172942	0	0	-0.320632	-0.0730855	-0.0329911	0.717074	-0.0141485	0	0	-0.333314	0.0982864	-0.149662	0.0123692	-0.341429	1.57048	0.345665	-0.000812292	0	0	0.471122	-0.248978	1.57268	0.431408	0.0194963	0	0
5.35498	-0.153623	0.036783	-3.03541	-0.34625	0.931134	-0.00572489	0.403946	0.0319457	-0.15316	0.552131	0.0122668	0	0	-0.292025	-0.0887365	-0.0427706	0.776701	-0.0677558	0	0	-0.332793	0.103392	-0.143263	0.0247848	-0.340242	1.57043	0.348933	-0.00127635	0	0	0.443239	-0.250041	1.57226	0.416826	0.00345072	0	0
5.36497	-0.155129	0.0417452	-3.03492	-0.347277	0.932095	-0.00696497	0.393454	0.0392143	-0.155766	0.565854	0.0249152	0	0	-0.262135	-0.103904	-0.0513901	0.835815	-0.11977	0	0	-0.333768	0.108146	-0.134733	0.0384912	-0.339247	1.57039	0.352486	-0.00184427	0	0	0.41711	-0.251564	1.57188	0.404392	-0.00707228	0	0
5.37496	-0.157417	0.0465572	-3.03501	-0.347979	0.933391	-0.00821965	0.3801	0.0469699	-0.157704	0.575501	0.0389687	0	0	-0.231384	-0.118165	-0.058425	0.89331	-0.168445	0	0	-0.336135	0.112371	-0.124474	0.0534549	-0.33841	1.57039	0.356249	-0.00250518	0	0	0.392761	-0.253547	1.57155	0.393898	-0.0132311	0	0
5.38495	-0.16031	0.0509232	-3.03541	-0.348369	0.935028	-0.00946284	0.364099	0.0548058	-0.158959	0.58116	0.0537606	0	0	-0.200049	-0.131025	-0.0635446	0.948188	-0.211896	0	0	-0.339629	0.115807	-0.112964	0.0696157	-0.337663	1.57043	0.36011	-0.00322983	0	0	0.370132	-0.256028	1.57128	0.385196	-0.0161137	0	0
5.39494	-0.163524	0.0545276	-3.03591	-0.348464	0.936996	-0.0106739	0.345843	0.0622894	-0.159472	0.583033	0.0686972	0	0	-0.168278	-0.14197	-0.0665436	0.999618	-0.248167	0	0	-0.34386	0.118152	-0.10069	0.0868948	-0.336921	1.57055	0.363939	-0.00396404	0	0	0.349095	-0.259072	1.57107	0.378189	-0.0166763	0	0
5.40493	-0.166721	0.0570807	-3.03637	-0.348289	0.939275	-0.0118397	0.325824	0.0690185	-0.159164	0.581396	0.0832745	0	0	-0.136126	-0.150535	-0.067383	1.04694	-0.275432	0	0	-0.348374	0.119104	-0.088091	0.1052	-0.336098	1.57076	0.36762	-0.00462142	0	0	0.32948	-0.262745	1.57091	0.372815	-0.0157143	0	0
5.41492	-0.169574	0.0583612	-3.03674	-0.347875	0.941834	-0.0129548	0.304536	0.0746765	-0.157956	0.576551	0.0970884	0	0	-0.103633	-0.156387	-0.066221	1.0896	-0.292378	0	0	-0.352731	0.118416	-0.0755157	0.124429	-0.335137	1.57109	0.371078	-0.00507611	0	0	0.311089	-0.267104	1.5708	0.369021	-0.0138574	0	0
5.42491	-0.171829	0.0582443	-3.03703	-0.347259	0.944638	-0.0140205	0.282398	0.079069	-0.155777	0.568791	0.109838	0	0	-0.0708946	-0.159378	-0.0634116	1.12712	-0.298596	0	0	-0.356569	0.115934	-0.0631965	0.144476	-0.334021	1.57158	0.374295	-0.0051562	0	0	0.293715	-0.272179	1.57073	0.366749	-0.0115782	0	0
5.4349	-0.173329	0.0567002	-3.03732	-0.34648	0.947645	-0.0150418	0.259722	0.0821163	-0.152573	0.558391	0.121333	0	0	-0.0380835	-0.159544	-0.0594512	1.15903	-0.294699	0	0	-0.359634	0.111606	-0.0512625	0.165239	-0.332782	1.57225	0.377316	-0.0046392	0	0	0.277153	-0.277969	1.57069	0.365919	-0.00921184	0	0
5.44489	-0.174012	0.0537829	-3.03772	-0.345579	0.950814	-0.0160251	0.236715	0.0838356	-0.148327	0.545621	0.131483	0	0	-0.00544737	-0.157083	-0.0549132	1.18493	-0.282124	0	0	-0.361786	0.105482	-0.0397572	0.186621	-0.331492	1.57313	0.380243	-0.00325127	0	0	0.261213	-0.284443	1.57067	0.366429	-0.00697766	0	0
5.45488	-0.173907	0.0496165	-3.03834	-0.344593	0.954095	-0.0169779	0.213494	0.0843216	-0.143058	0.530751	0.140282	0	0	0.0267101	-0.15232	-0.050381	1.20451	-0.262776	0	0	-0.362987	0.0976965	-0.0286585	0.208535	-0.330257	1.5742	0.383229	-0.000672335	0	0	0.245729	-0.291544	1.57067	0.368156	-0.00500341	0	0
5.46487	-0.17311	0.044382	-3.03928	-0.343554	0.957439	-0.0179065	0.19011	0.083728	-0.136826	0.51406	0.147796	0	0	0.0580608	-0.145677	-0.0463881	1.21758	-0.238671	0	0	-0.363294	0.0884638	-0.0179013	0.230909	-0.329212	1.57546	0.386463	0.00345006	0	0	0.23057	-0.2992	1.57068	0.370961	-0.00334731	0	0
5.47486	-0.171748	0.0382992	-3.04064	-0.342485	0.960788	-0.0188159	0.166607	0.0822416	-0.129732	0.495857	0.154146	0	0	0.0883083	-0.137624	-0.0433748	1.22408	-0.211689	0	0	-0.362815	0.0780518	-0.00740124	0.253683	-0.328513	1.57684	0.390171	0.00947507	0	0	0.215644	-0.30732	1.5707	0.374688	-0.00201772	0	0
5.48485	-0.169946	0.0316052	-3.04246	-0.341395	0.964082	-0.0197082	0.143056	0.080055	-0.121929	0.476491	0.159495	0	0	0.117224	-0.128631	-0.0416547	1.22409	-0.183442	0	0	-0.36168	0.0667608	0.00291858	0.276814	-0.328326	1.57826	0.3946	0.0177275	0	0	0.200902	-0.315808	1.57071	0.379176	-0.000989649	0	0
5.49485	-0.167827	0.0245363	-3.04475	-0.340287	0.967254	-0.0205821	0.119556	0.0773497	-0.11362	0.456339	0.164042	0	0	0.144648	-0.119132	-0.041402	1.21778	-0.15522	0	0	-0.360033	0.0549048	0.0131091	0.300261	-0.328826	1.57955	0.400015	0.0284377	0	0	0.186336	-0.32457	1.57073	0.38427	-0.000218012	0	0
5.50484	-0.165519	0.0173159	-3.04744	-0.339153	0.970242	-0.0214324	0.0961976	0.0742918	-0.105058	0.435787	0.168013	0	0	0.170461	-0.109506	-0.042653	1.20542	-0.127986	0	0	-0.358045	0.0427996	0.0231888	0.323985	-0.330179	1.58047	0.406691	0.0416595	0	0	0.17199	-0.333518	1.57075	0.389833	0.00035214	0	0
5.51483	-0.163161	0.0101468	-3.05044	-0.337983	0.972988	-0.0222506	0.0730529	0.0710339	-0.0965228	0.415203	0.17164	0	0	0.19457	-0.100063	-0.045329	1.18732	-0.102417	0	0	-0.35591	0.0307488	0.0331545	0.34793	-0.332546	1.58071	0.414899	0.0572885	0	0	0.157951	-0.342573	1.57076	0.395749	0.000777923	0	0
5.52482	-0.160899	0.00320603	-3.05359	-0.336763	0.975439	-0.0230255	0.0501591	0.0677157	-0.0883115	0.394923	0.175146	0	0	0.216895	-0.0910374	-0.0492589	1.16381	-0.0789433	0	0	-0.353841	0.0190336	0.0429841	0.372011	-0.336075	1.57985	0.424889	0.0751452	0	0	0.144343	-0.351659	1.57077	0.401912	0.00111295	0	0
5.53481	-0.158881	-0.00335606	-3.0567	-0.335485	0.977557	-0.0237436	0.027498	0.0644705	-0.0807313	0.375219	0.178725	0	0	0.237356	-0.0825958	-0.0542006	1.13522	-0.0578037	0	0	-0.352056	0.00790988	0.0526345	0.396104	-0.340898	1.57736	0.436876	0.0950339	0	0	0.131305	-0.360704	1.57078	0.40822	0.00140308	0	0
5.5448	-0.157259	-0.00941266	-3.05958	-0.334144	0.97931	-0.0243896	0.00499	0.0614348	-0.074069	0.356268	0.18253	0	0	0.255871	-0.0748456	-0.0598759	1.10188	-0.0390923	0	0	-0.350773	-0.00239476	0.0620522	0.42004	-0.347127	1.57265	0.45104	0.116816	0	0	0.118975	-0.369626	1.57079	0.414546	0.00168309	0	0
5.55479	-0.156173	-0.0148647	-3.062	-0.332742	0.98068	-0.0249476	-0.0175078	0.0587458	-0.0685749	0.338134	0.18667	0	0	0.272354	-0.0678378	-0.0659877	1.0641	-0.0227808	0	0	-0.350194	-0.0116871	0.0711693	0.443604	-0.354846	1.56504	0.467513	0.140448	0	0	0.107466	-0.37832	1.5708	0.4207	0.00197377	0	0
5.56478	-0.155746	-0.0196406	-3.06375	-0.33129	0.98166	-0.0254024	-0.040177	0.0565398	-0.0644321	0.320787	0.191209	0	0	0.286726	-0.0615742	-0.0722495	1.02219	-0.00872439	0	0	-0.350488	-0.0198137	0.0799215	0.466543	-0.364109	1.55384	0.486366	0.165971	0	0	0.0968537	-0.386639	1.5708	0.426388	0.00227915	0	0
5.57477	-0.156069	-0.0236946	-3.06466	-0.329803	0.982251	-0.0257393	-0.0632126	0.0549469	-0.0617389	0.30412	0.196175	0	0	0.298929	-0.0560125	-0.0783984	0.976436	0.0033217	0	0	-0.351781	-0.0266589	0.0882595	0.488585	-0.374934	1.53842	0.507602	0.193474	0	0	0.0871607	-0.394371	1.5708	0.43117	0.00258359	0	0
5.58476	-0.157217	-0.0270148	-3.06459	-0.328299	0.982462	-0.0259451	-0.0868056	0.0540758	-0.060517	0.287997	0.201576	0	0	0.308925	-0.0510643	-0.0841944	0.927165	0.0136777	0	0	-0.354181	-0.0321634	0.0961179	0.509492	-0.387279	1.51831	0.531141	0.223044	0	0	0.0784144	-0.401375	1.5708	0.434766	0.00284875	0	0
5.59475	-0.159225	-0.0296238	-3.06344	-0.326795	0.982308	-0.0260095	-0.111099	0.0540028	-0.0607062	0.2723	0.207408	0	0	0.31672	-0.0466019	-0.0894271	0.87473	0.0227175	0	0	-0.357755	-0.0363297	0.103433	0.529084	-0.401031	1.49337	0.556799	0.254667	0	0	0.0706365	-0.40757	1.5708	0.437024	0.00301055	0	0
5.60474	-0.162082	-0.031581	-3.0612	-0.325306	0.981808	-0.0259265	-0.136153	0.0547578	-0.0621714	0.256962	0.213672	0	0	0.322384	-0.0424645	-0.0939123	0.819533	0.030836	0	0	-0.362497	-0.0392243	0.110141	0.547274	-0.415976	1.46398	0.584238	0.288099	0	0	0.0638189	-0.412915	1.5708	0.43788	0.00299177	0	0
5.61473	-0.165721	-0.032982	-3.05789	-0.323851	0.98098	-0.0256944	-0.161941	0.0563167	-0.0647248	0.241978	0.220384	0	0	0.326053	-0.0384634	-0.097475	0.76204	0.0384162	0	0	-0.368327	-0.0409736	0.116167	0.564085	-0.431793	1.43104	0.612969	0.322818	0	0	0.0579054	-0.417405	1.5708	0.43733	0.00277618	0	0
5.62472	-0.170028	-0.033954	-3.05361	-0.322447	0.979844	-0.0253162	-0.188343	0.0585993	-0.0681533	0.22742	0.227582	0	0	0.327934	-0.0343937	-0.0999344	0.702793	0.0458106	0	0	-0.37509	-0.0417578	0.121431	0.579618	-0.448085	1.39577	0.642389	0.358086	0	0	0.0527987	-0.421062	1.5708	0.435415	0.00241682	0	0
5.63471	-0.174845	-0.034648	-3.04846	-0.321114	0.978423	-0.0247996	-0.215154	0.0614722	-0.0722429	0.213442	0.235323	0	0	0.32829	-0.0300471	-0.101091	0.642415	0.0533306	0	0	-0.382568	-0.041801	0.125862	0.594026	-0.464412	1.3595	0.671836	0.393054	0	0	0.0483758	-0.423931	1.5708	0.432218	0.00199419	0	0
5.6447	-0.179983	-0.0352307	-3.04261	-0.319867	0.976738	-0.0241562	-0.242091	0.0647538	-0.0768042	0.200267	0.243673	0	0	0.32743	-0.0252218	-0.100714	0.581604	0.0612402	0	0	-0.390499	-0.0413588	0.12941	0.607473	-0.480342	1.32348	0.700657	0.426882	0	0	0.0445088	-0.426076	1.5708	0.427856	0.00156469	0	0
5.6547	-0.185247	-0.0358711	-3.03622	-0.318722	0.974813	-0.0233999	-0.268832	0.0682304	-0.081692	0.188178	0.252684	0	0	0.325676	-0.0197389	-0.0985357	0.52113	0.06975	0	0	-0.398617	-0.0406984	0.132051	0.620103	-0.49548	1.28875	0.728266	0.458842	0	0	0.041082	-0.427571	1.5708	0.422483	0.00116489	0	0
5.66469	-0.19046	-0.0367233	-3.02947	-0.317689	0.972676	-0.0225461	-0.295044	0.0716779	-0.0867968	0.177487	0.262382	0	0	0.323329	-0.0134662	-0.0942768	0.461819	0.0790059	0	0	-0.406679	-0.040076	0.133805	0.632022	-0.509507	1.25607	0.754186	0.488384	0	0	0.038008	-0.428499	1.5708	0.416279	0.000815728	0	0
5.67468	-0.195479	-0.0379124	-3.02257	-0.316776	0.970357	-0.0216103	-0.320423	0.0748816	-0.0920269	0.168508	0.272742	0	0	0.320652	-0.0063395	-0.0876957	0.404548	0.089069	0	0	-0.414494	-0.039718	0.134737	0.643286	-0.52219	1.2259	0.778068	0.515181	0	0	0.0352346	-0.428935	1.5708	0.409444	0.000526566	0	0
5.68467	-0.200202	-0.0395239	-3.01569	-0.315988	0.967892	-0.0206077	-0.344717	0.0776542	-0.0972927	0.161501	0.283676	0	0	0.31787	0.00162391	-0.0786538	0.350231	0.0999043	0	0	-0.421915	-0.0398069	0.134957	0.653902	-0.53338	1.19846	0.799682	0.539085	0	0	0.0327392	-0.428952	1.5708	0.402196	0.000298629	0	0
5.69466	-0.204555	-0.041592	-3.00904	-0.315332	0.965318	-0.0195526	-0.367736	0.0798525	-0.102488	0.156643	0.295015	0	0	0.31517	0.0103156	-0.0671813	0.299804	0.111372	0	0	-0.428827	-0.0404675	0.134611	0.663839	-0.54299	1.17382	0.818895	0.560058	0	0	0.030515	-0.428607	1.5708	0.394749	0.000127899	0	0
5.70465	-0.208497	-0.0440971	-3.0028	-0.314816	0.962672	-0.0184576	-0.389376	0.081385	-0.107477	0.153996	0.306496	0	0	0.312719	0.0195402	-0.0535454	0.254219	0.12322	0	0	-0.435149	-0.041761	0.133873	0.673041	-0.550991	1.15195	0.835657	0.578123	0	0	0.0285594	-0.427939	1.5708	0.387302	7.37997e-06	0	0
